<svg width="1440" height="215" viewBox="0 0 1440 215" fill="none" xmlns="http://www.w3.org/2000/svg">
<rect width="1440" height="193" fill="#D2531D"/>
<path d="M846.5 125.72C849.8 111.2 853.32 94.7 856.84 78.2H930.1C928.56 93.38 926.8 109.66 924.82 125.72H846.5ZM934.72 177.86C939.34 147.72 945.06 99.54 948.8 63.24H859.92C862.12 52.24 864.1 41.24 866.08 31.12H982.24V15.94H800.08V31.12H848.92C842.1 69.4 831.1 120.22 822.74 150.36L840.34 152.12L843.2 140.68H922.84C920.86 154.32 918.88 167.08 917.12 177.86H792.6V193.04H988.84V177.86H934.72ZM1049.56 32.44L1028.22 32C1029.54 37.28 1029.76 46.52 1029.76 51.58C1029.76 64.34 1030.2 91.18 1032.18 110.32C1038.12 167.3 1058.14 187.98 1079.04 187.98C1093.78 187.98 1107.2 175.22 1120.4 137.82L1106.54 122.2C1100.82 144.2 1090.48 167.08 1079.26 167.08C1063.64 167.08 1052.86 142.66 1049.34 105.92C1047.8 87.66 1047.58 67.64 1047.8 53.78C1047.8 48.06 1048.68 37.72 1049.56 32.44ZM1164.18 38.6L1147.02 44.54C1168.14 70.28 1181.34 115.38 1185.3 155.2L1202.9 147.94C1199.6 110.76 1183.76 64.12 1164.18 38.6ZM1320.82 37.5V55.1C1345.02 57.74 1387.7 57.74 1411.24 55.1V37.28C1389.24 40.58 1344.8 41.46 1320.82 37.5ZM1329.4 127.04L1313.56 125.5C1311.14 136.28 1309.82 143.98 1309.82 151.46C1309.82 172.14 1326.32 184.46 1363.28 184.46C1385.94 184.46 1404.42 182.48 1418.28 179.84L1417.84 161.36C1400.02 165.32 1383.08 167.08 1363.28 167.08C1333.36 167.08 1326.1 157.4 1326.1 147.28C1326.1 141.34 1327.2 135.18 1329.4 127.04ZM1278.8 20.56L1259.22 18.8C1259.22 23.64 1258.56 29.36 1257.68 34.42C1255.04 52.68 1247.78 90.3 1247.78 122.64C1247.78 152.34 1251.52 177.64 1255.92 193.26L1271.76 192.16C1271.54 189.96 1271.32 186.88 1271.1 184.46C1270.88 182.04 1271.54 177.86 1272.2 174.56C1274.18 164.22 1282.1 140.9 1287.82 125.28L1278.58 118.24C1274.84 127.26 1269.56 140.46 1265.82 150.36C1264.5 139.58 1263.84 130.34 1263.84 119.56C1263.84 94.92 1270.66 55.54 1274.84 35.3C1275.72 31.34 1277.7 24.3 1278.8 20.56Z" fill="#B74312"/>
</svg>
