<svg width="469" height="469" viewBox="0 0 469 469" fill="none" xmlns="http://www.w3.org/2000/svg">
<g filter="url(#filter0_d)">
<circle cx="234.5" cy="230.5" r="230.5" fill="black"/>
<path d="M104.4 220.408C106.02 213.28 107.748 205.18 109.476 197.08H145.44C144.684 204.532 143.82 212.524 142.848 220.408H104.4ZM147.708 246.004C149.976 231.208 152.784 207.556 154.62 189.736H110.988C112.068 184.336 113.04 178.936 114.012 173.968H171.036V166.516H81.612V173.968H105.588C102.24 192.76 96.84 217.708 92.736 232.504L101.376 233.368L102.78 227.752H141.876C140.904 234.448 139.932 240.712 139.068 246.004H77.94V253.456H174.276V246.004H147.708ZM204.084 174.616L193.608 174.4C194.256 176.992 194.364 181.528 194.364 184.012C194.364 190.276 194.58 203.452 195.552 212.848C198.468 240.82 208.296 250.972 218.556 250.972C225.792 250.972 232.38 244.708 238.86 226.348L232.056 218.68C229.248 229.48 224.172 240.712 218.664 240.712C210.996 240.712 205.704 228.724 203.976 210.688C203.22 201.724 203.112 191.896 203.22 185.092C203.22 182.284 203.652 177.208 204.084 174.616ZM260.352 177.64L251.928 180.556C262.296 193.192 268.776 215.332 270.72 234.88L279.36 231.316C277.74 213.064 269.964 190.168 260.352 177.64ZM337.248 177.1V185.74C349.128 187.036 370.08 187.036 381.636 185.74V176.992C370.836 178.612 349.02 179.044 337.248 177.1ZM341.46 221.056L333.684 220.3C332.496 225.592 331.848 229.372 331.848 233.044C331.848 243.196 339.948 249.244 358.092 249.244C369.216 249.244 378.288 248.272 385.092 246.976L384.876 237.904C376.128 239.848 367.812 240.712 358.092 240.712C343.404 240.712 339.84 235.96 339.84 230.992C339.84 228.076 340.38 225.052 341.46 221.056ZM316.62 168.784L307.008 167.92C307.008 170.296 306.684 173.104 306.252 175.588C304.956 184.552 301.392 203.02 301.392 218.896C301.392 233.476 303.228 245.896 305.388 253.564L313.164 253.024C313.056 251.944 312.948 250.432 312.84 249.244C312.732 248.056 313.056 246.004 313.38 244.384C314.352 239.308 318.24 227.86 321.048 220.192L316.512 216.736C314.676 221.164 312.084 227.644 310.248 232.504C309.6 227.212 309.276 222.676 309.276 217.384C309.276 205.288 312.624 185.956 314.676 176.02C315.108 174.076 316.08 170.62 316.62 168.784Z" fill="white"/>
</g>
<defs>
<filter id="filter0_d" x="0" y="0" width="469" height="469" filterUnits="userSpaceOnUse" color-interpolation-filters="sRGB">
<feFlood flood-opacity="0" result="BackgroundImageFix"/>
<feColorMatrix in="SourceAlpha" type="matrix" values="0 0 0 0 0 0 0 0 0 0 0 0 0 0 0 0 0 0 127 0" result="hardAlpha"/>
<feOffset dy="4"/>
<feGaussianBlur stdDeviation="2"/>
<feComposite in2="hardAlpha" operator="out"/>
<feColorMatrix type="matrix" values="0 0 0 0 0 0 0 0 0 0 0 0 0 0 0 0 0 0 0.25 0"/>
<feBlend mode="normal" in2="BackgroundImageFix" result="effect1_dropShadow"/>
<feBlend mode="normal" in="SourceGraphic" in2="effect1_dropShadow" result="shape"/>
</filter>
</defs>
</svg>
